<?xml version="1.0" encoding="utf-8"?>
<!-- Generator: Adobe Adobe Illustrator 24.2.0, SVG Export Plug-In . SVG Version: 6.00 Build 0)  -->
<svg version="1.1" xmlns="http://www.w3.org/2000/svg" xmlns:xlink="http://www.w3.org/1999/xlink" x="0px" y="0px"
	 width="595.28px" height="841.89px" viewBox="0 0 595.28 841.89" style="enable-background:new 0 0 595.28 841.89;"
	 xml:space="preserve">
<style type="text/css">
	.st0{display:none;}
</style>
<g id="Layer_3" class="st0">
</g>
<g id="Layer_2">
	<g>
		<path d="M328.69,327.05c0,0,9.92-24.69,41.57-17.25l15.91,43.02c0,0,4.15,12.87,26.68,16.51l17.16,0.1c0,0,3.66,1.03-1.41,2.31
			s-32.86,4.83-35.44,16.01c-2.58,11.18,31.94,123.18,31.94,123.18s3.65,17.91,26.51,22.19c0,0,4.97,2.97-3.07,5.21l-92.53,0.08
			c0,0-8.6-1.63-1.38-5.18c0,0,29.24,0.04,23.3-21.6c-5.94-21.64-29.56-111.7-29.56-111.7s-4.9-13.32-24.86-8.76l-0.17-20.44
			c0,0,15.95-2.45,13.86-13.71L328.69,327.05z"/>
		<path d="M243.09,327.05c0,0-10.28-24.69-43.08-17.25l-16.49,43.02c0,0-4.3,12.87-27.65,16.51l-17.78,0.1c0,0-3.8,1.03,1.46,2.31
			c5.26,1.27,34.05,4.83,36.72,16.01s-33.09,123.18-33.09,123.18s-3.78,17.91-27.47,22.19c0,0-5.15,2.97,3.18,5.21l95.87,0.08
			c0,0,8.91-1.63,1.42-5.18c0,0-30.3,0.04-24.14-21.6c6.16-21.64,30.63-111.7,30.63-111.7s5.07-13.32,25.76-8.76l0.18-20.44
			c0,0-16.52-2.45-14.36-13.71L243.09,327.05z"/>
		<path d="M168.87,200.68l115.11-59.8L399.7,199.5c0,0,2.91,2.05-1.68,1.37c0,0-42.14-14.34-54.28,1.57l19.37,75.76l-46.89,0.33
			l-32.11-116.98L252.3,277.97l-46.3,0.25l18.79-73.32c0.25-1,0.29-1.63-0.27-2.49c-0.45-0.69-4.55-6.91-24.12-6.91
			C192.42,195.49,167.51,201.9,168.87,200.68z"/>
		<path d="M215.7,292.62l137.14,0.09c0,0,5.08,0.78,2.13,3.22c-0.25,0.21-2.51,1.04-4.64,1.32c0,0-40.02,7.56-37.96,23.6
			c1.05,8.18,0.26,121.78,0.26,121.78s-0.25,8.53,8.29,11.74c15.69,5.91,29.72,2.65,24.17,5.39c-10,4.92-31.63,3.07-31.63,17.68
			s-1.29,116.82-1.29,116.82s-0.98,10.57,12.44,16.98c0,0,22.66,9.42,30.33,8.79c0,0,6.84,1.22-1.47,4.83l-136.83,0.15
			c0,0-9.96-1.59-1.11-5.67c0,0,38.5-4.01,41.69-24.83l-0.39-116.23c0,0,2.84-14.27-29.98-17.05c-0.85-0.07-6.06-2.25,2.15-2.62
			c0,0,28.19-1.04,28.19-14.94s0.1-121.8,0.1-121.8s2.34-17-39.71-24.92C216.02,296.67,207.52,293.99,215.7,292.62z"/>
	</g>
</g>
</svg>
